<?xml version="1.0" encoding="UTF-8" standalone="no"?>
<svg xmlns:dc="http://purl.org/dc/elements/1.1/" xmlns:cc="http://creativecommons.org/ns#" xmlns:rdf="http://www.w3.org/1999/02/22-rdf-syntax-ns#" xmlns:svg="http://www.w3.org/2000/svg" xmlns="http://www.w3.org/2000/svg"
   viewBox="0 0 230 305">
  <path style="fill:#5c5c5c" d="M 15.359654,137.93087 8.3596536,70.433191 28.359654,20.433521 85.856714,7.4713611 l 10.05951,0.60597 12.454176,40.0992099 87.98923,-48.24267991 0,231.49713891 32.79812,71.3203 L 31.359634,301 l 0,-55.38039 0,-45.03659 -15.99998,-12.65446 -5.12012,-41.47526 z m 51.36938,103.33327 c -0.54472,-2.17032 -0.3744,-2.55148 0.9184,-2.05539 8.25067,3.16608 17.10497,3.09461 29.71222,-0.23981 2.475,-0.6546 6.115516,-1.60298 8.090046,-2.1075 4.06577,-1.03887 16.86322,-9.16979 24.5412,-15.59237 5.42967,-4.54188 18.4765,-22.10798 21.42063,-28.84051 0.96207,-2.2 2.07122,-6.025 2.46479,-8.5 0.39358,-2.475 1.13478,-5.29799 1.64712,-6.27332 0.84696,-1.61231 1.129,-1.63501 3.10638,-0.25 3.0115,2.10934 7.97573,1.90433 10.97276,-0.45313 1.38196,-1.08705 4.17768,-5.47455 6.21271,-9.75 3.33552,-7.0077 3.79777,-9.00505 4.69195,-20.27355 0.82728,-10.42549 0.74307,-13.16384 -0.50739,-16.5 l -1.49928,-4 -0.0705,5.75 c -0.0388,3.1625 -0.4709,5.75 -0.96033,5.75 -0.48943,0 -1.79004,-1.9125 -2.89024,-4.25 -1.1002,-2.3375 -2.91748,-5.07804 -4.03841,-6.09009 -1.99064,-1.79728 -2.09043,-1.77984 -4.2901,0.75 -1.23859,1.42455 -2.84586,2.59009 -3.57168,2.59009 -0.79885,0 -1.31966,1.18085 -1.31966,2.99213 0,2.46992 0.64798,3.29893 3.71271,4.75 4.25611,2.01515 7.55698,8.38818 5.44071,10.50445 -0.87123,0.87123 -1.44701,0.85983 -2.35342,-0.0466 -0.66,-0.66 -1.94026,-1.2 -2.84501,-1.2 -0.90476,0 -2.4595,-0.9 -3.45499,-2 -2.56512,-2.83442 -3.2604,-2.53176 -4.6217,2.01188 -1.53461,5.12205 -3.15948,6.55917 -4.96134,4.38807 -0.97187,-1.17103 -1.27336,-4.31594 -1.07969,-11.26234 0.3644,-13.07014 -3.20148,-30.00388 -8.75828,-41.591549 -4.31646,-9.00119 -6.01521,-14.81276 -6.05454,-20.71316 -0.0134,-2.0169 -0.91782,-5.75123 -2.00971,-8.2985 -1.69706,-3.9591 -2.75257,-4.97076 -7.27108,-6.96906 -5.40484,-2.39028 -12.76773,-3.9057 -27.655936,-5.69212 -7.71161,-0.9253 -8.63422,-0.84529 -11.07688,0.96064 -3.4987,2.5867 -11.17694,2.25397 -16.0127,-0.69392 -1.92398,-1.17283 -4.62314,-2.13632 -5.99814,-2.14106 -1.375,-0.005 -5.56481,-1.58143 -9.3107,-3.50374 -3.74588,-1.92232 -7.65309,-3.49512 -8.68269,-3.49512 -2.79456,0 -15.66873,5.38755 -18.12527,7.58502 -3.42446,3.0633 -6.29839,8.24069 -10.2368,18.44159 -4.39241,11.37684 -5.3513,19.44975 -3.69561,31.113619 1.51292,10.65811 2.32572,12.16313 4.40121,8.14956 1.76016,-3.40376 8.45075,-6.71431 17.06646,-8.44459 10.7414,-2.15718 20.79622,3.96216 24.22794,14.74507 1.58568,4.98243 1.5725,5.1449 -0.62237,7.66922 -1.23331,1.41843 -3.3165,2.84855 -4.62931,3.17805 -2.06066,0.51719 -2.2247,0.85887 -1.20006,2.49957 0.92808,1.4861 0.9038,2.24157 -0.11136,3.46476 -1.6647,2.00584 -11.36664,5.0864 -13.47323,4.27803 -2.03358,-0.78036 -2.10334,-2.6799 -0.0984,-2.6799 0.83038,0 2.28039,-0.9 3.22224,-2 0.94185,-1.1 2.26089,-2 2.93119,-2 0.67031,0 1.53536,-0.51228 1.92232,-1.13841 0.5028,-0.81354 -0.31676,-0.94699 -2.87189,-0.46765 -2.9289,0.54947 -3.94962,0.26915 -5.64456,-1.55015 -1.138,-1.2215 -2.06909,-2.81106 -2.06909,-3.53235 0,-2.55819 -1.99465,-1.26 -3.46277,2.25369 -1.33069,3.18479 -1.83888,3.53152 -4.76342,3.25 -2.91861,-0.28094 -3.38231,-0.76016 -4.27381,-4.41684 -1.15632,-4.7429 -2.758,-6.97099 -5.53276,-7.69661 -1.85354,-0.48471 -1.9766,0.0726 -2.12915,9.64194 -0.24398,15.30474 0.25592,26.04509 1.26165,27.10638 0.49514,0.5225 0.90026,1.37571 0.90026,1.89602 0,2.60664 -4.8998,-4.79345 -5.49105,-8.29304 -0.37663,-2.22914 -1.09521,-4.05298 -1.59687,-4.05298 -1.47386,0 -1.0541,7.10073 1.03311,17.47641 1.73954,8.64739 2.77055,12.22274 6.26628,21.73014 1.05175,2.86047 6.23216,5.32791 8.97567,4.27512 1.891,-0.72564 3.01363,0.76555 5.28368,7.01833 2.93903,8.09547 8.92005,17.45979 16.46952,25.78587 4.31203,4.75562 7.05964,8.65456 7.05964,10.01787 0,2.86596 4.61759,9.69626 6.5551,9.69626 1.10693,0 1.31342,-0.67567 0.81428,-2.66442 z m 12.19254,-23.32651 c -4.12276,-0.7908 -7.56192,-3.98025 -7.56192,-7.01287 0,-2.22234 1.94142,-2.9962 7.51669,-2.9962 2.39421,0 5.5327,-0.44848 6.97441,-0.99662 3.27046,-1.24342 8.5089,1.14297 8.5089,3.87628 0,2.49868 -4.45947,7.12034 -6.87046,7.12034 -1.08128,0 -2.56527,0.172 -3.29775,0.38222 -0.73249,0.21023 -3.10392,0.0423 -5.26987,-0.37315 z m -20.31192,-18.72932 c -1.7875,-0.22356 -3.25,-0.9846 -3.25,-1.6912 0,-3.34655 19.56635,-6.58413 39,-6.4532 10.886536,0.0734 14.361776,0.78918 14.796756,3.04782 0.24876,1.29172 -1.27338,1.80015 -7.99475,2.67043 -4.566106,0.59122 -10.102006,1.34917 -12.302006,1.68434 -5.05081,0.76947 -25.93404,1.28159 -30.25,0.74181 z m 15.13478,-12.04506 c -0.61337,-0.40408 -1.46633,-1.8579 -1.89547,-3.23072 -0.42915,-1.37282 -2.7404,-4.90231 -5.13613,-7.84332 -4.8075,-5.90172 -4.87337,-7.99813 -0.17495,-5.56848 3.65853,1.8919 8.48401,1.24795 12.12805,-1.61845 2.91427,-2.29236 8.47636,-2.58436 11.20613,-0.5883 1.84548,1.34945 1.84719,1.49072 0.0658,5.4411 -1.00587,2.23062 -2.44747,4.29306 -3.20354,4.58319 -0.75608,0.29014 -1.37469,1.17003 -1.37469,1.95531 0,1.90151 -6.61486,7.63904 -8.7848,7.61967 -0.94336,-0.008 -2.21705,-0.34592 -2.83042,-0.75 z m 24.75461,-52.23337 c -1.84833,-0.43668 -4.06573,-1.49908 -4.92754,-2.3609 -1.42258,-1.42258 -1.39818,-1.63169 0.26481,-2.26984 1.00746,-0.3866 3.89985,-0.11072 6.427536,0.61306 2.52769,0.72377 6.6208,1.61949 9.0958,1.99049 l 4.5,0.67453 -2.8151,1.17567 c -3.13625,1.30979 -7.49065,1.37122 -12.545506,0.17699 z m -9.60456,-8.94496 c -0.35907,-0.581 -1.51047,-1.05636 -2.55866,-1.05636 -1.04819,0 -2.44305,-1.0125 -3.09969,-2.25 -0.65663,-1.2375 -2.02246,-2.83802 -3.03518,-3.5567 -1.24976,-0.88691 -1.8413,-2.55842 -1.8413,-5.20295 0,-9.51198 4.7591,-12.63654 20.72391,-13.60617 14.192516,-0.861999 24.897636,1.32565 30.181216,6.16769 4.33233,3.97028 3.75961,6.44813 -1.49038,6.44813 -3.3328,0 -3.58492,0.19442 -2.91786,2.25 0.40158,1.2375 0.94586,3.88014 1.20951,5.87253 l 0.47936,3.62253 -4.65531,0.6981 c -2.70043,0.40496 -5.15519,0.28324 -5.84571,-0.28984 -0.80331,-0.66669 -1.8207,-0.52707 -3.1287,0.42936 -3.42275,2.50278 -8.21728,1.79454 -10.71416,-1.58268 -2.733976,-3.6979 -3.384526,-3.73014 -5.044266,-0.25 -0.95284,1.99792 -2.17277,2.83378 -4.46072,3.05636 -1.73205,0.1685 -3.44298,-0.169 -3.80206,-0.75 z m 61.033476,102.45933 c 5.42369,-4.13685 5.73355,-5.34526 4.44844,-17.34836 -0.62816,-5.86703 -1.54809,-11.07902 -2.04429,-11.5822 -0.5402,-0.54778 -1.71871,1.05717 -2.93718,4 -1.11925,2.70318 -2.58229,5.81487 -3.2512,6.91487 -0.66891,1.1 -2.23116,3.96345 -3.47166,6.36322 -1.2405,2.39977 -2.67817,4.87477 -3.19481,5.5 -1.77511,2.14818 -4.33269,9.6339 -3.78192,11.0692 0.46727,1.21767 1.33391,1.1504 5.68951,-0.44163 2.82606,-1.03296 6.67046,-3.04675 8.54311,-4.4751 z m 25.43169,-107.51569 c -1.09032,-2.03728 -5,-2.81921 -5,-1 0,0.55 0.87344,1 1.94098,1 1.06754,0 2.2191,0.45 2.55902,1 1.15193,1.86386 1.57734,1.01303 0.5,-1 z"/>
  <path style="fill:#1e1e1e" d="m 27.769404,302.90084 c -9.50417,-2.55545 -16.54141,-5.65961 -16.33861,-7.20703 0.58079,-4.43153 0.05,-4.9594 -4.3211404,-4.29716 l -4.25,0.64388 2.5,-2.03423 c 1.375,-1.11883 4.075,-2.28742 6.0000004,-2.59687 7.9484,-1.27771 15.93649,-3.77382 20.59918,-6.43679 16.50247,-9.42495 24.83554,-29.95985 19.59775,-48.29408 -1.0606,-3.7125 -1.782,-6.75 -1.60312,-6.75 1.3489,0 6.10326,6.59773 8.45262,11.7299 2.35997,5.15531 3.76622,6.81181 8.15273,9.60353 8.12801,5.17294 11.79811,6.03393 22.73886,5.33444 24.196186,-1.54697 51.007676,-11.68742 63.432856,-23.99113 l 4.87088,-4.82326 -0.66105,-5.8429 c -0.88037,-7.78144 0.929,-8.72503 2.44304,-1.27405 1.63453,8.04397 11.61095,26.41393 18.44814,33.96928 3.07321,3.396 6.48208,8.19655 7.57527,10.66789 1.17545,2.6573 4.06562,6.2571 7.07313,8.80982 2.79704,2.37406 9.04577,8.36648 13.88607,13.31648 4.84031,4.95 11.9676,11.025 15.83843,13.5 4.18808,2.67784 7.06164,5.20862 7.09655,6.25 0.0554,1.65371 -4.72852,1.75 -86.94134,1.75 -57.333326,0 -86.999996,-0.341 -86.999996,-1 0,-0.55 -0.47656,-1 -1.05902,-1 -0.58246,0 -0.7809,0.45 -0.44098,1 1.12627,1.82235 -18.34256,1.05545 -26.09025,-1.02772 z m 16.59025,-5.47228 c 0,-2.99127 1.60728,-3.31273 2.5,-0.5 0.34913,1.1 1.09115,2 1.64895,2 0.55779,0 0.0183,-1.6114 -1.19894,-3.58089 -1.85309,-2.99835 -2.1258,-4.54382 -1.67639,-9.5 0.2952,-3.25551 0.3912,-5.91911 0.21334,-5.91911 -1.5061,0 -3.48696,1.4746 -3.48696,2.59579 0,0.7856 -0.97081,1.35373 -2.25,1.31674 -3.06796,-0.0887 -10.45371,1.82614 -14.99451,3.88756 -4.23904,1.92442 -4.5843,4.41079 -0.72098,5.1922 1.38055,0.27924 4.07505,1.70772 5.98779,3.17439 3.21014,2.46152 5.85576,3.29246 11.7277,3.68349 1.77329,0.11808 2.25,-0.37985 2.25,-2.35017 z M 155.74626,196.33279 c -0.78263,-3.11822 0.28148,-14.47232 1.46749,-15.65833 1.20619,-1.20619 6.00055,1.22078 6.68755,3.38534 0.63545,2.00212 -5.05307,14.86876 -6.57368,14.86876 -0.51143,0 -1.22304,-1.1681 -1.58136,-2.59577 z m -92.574106,0.91266 c 0.72187,-0.28887 1.58437,-0.25335 1.91667,0.0789 0.33229,0.33229 -0.25834,0.56864 -1.3125,0.52522 -1.16495,-0.048 -1.4019,-0.28494 -0.60417,-0.60416 z m 36.937496,-2.97917 c 0.6875,-0.27741 1.8125,-0.27741 2.5,0 0.6875,0.27741 0.125,0.50439 -1.25,0.50439 -1.374996,0 -1.937496,-0.22698 -1.25,-0.50439 z M 82.359654,169.92856 c 0,-0.55 0.64844,-1 1.44098,-1 0.79254,0 1.7191,0.45 2.05902,1 0.33992,0.55 -0.30852,1 -1.44098,1 -1.13246,0 -2.05902,-0.45 -2.05902,-1 z M 155.1453,144.38087 c -0.30123,-0.30122 -0.3359,-3.33872 -0.077,-6.75 0.25885,-3.41127 0.0116,-8.00231 -0.54952,-10.20231 -2.76749,-10.85117 -6.29429,-21.86239 -9.60873,-29.999999 -3.70709,-9.10165 -4.08428,-13.92711 -1.34752,-17.23904 3.23364,-3.91322 -4.1025,-17.06849 -11.70283,-20.98572 -1.65,-0.85041 -3.37202,-2.18196 -3.82671,-2.959 -0.55033,-0.94048 -2.55624,-1.39577 -6,-1.36185 -9.04913,0.0891 -26.100156,-1.46288 -28.173286,-2.5644 -1.23153,-0.65435 -7.72841,-0.95068 -16.90868,-0.77122 -13.40444,0.26204 -15.18217,0.0967 -17.61939,-1.63876 -1.49089,-1.06161 -3.78199,-2.39033 -5.09132,-2.95272 -1.30934,-0.56238 -3.1495,-1.57205 -4.08926,-2.2437 -1.41105,-1.0085 -2.63024,-0.72322 -7,1.63796 -7.67268,4.14589 -10.80468,4.87636 -12.87497,3.00278 -1.56373,-1.41516 -2.23763,-1.07164 -8.06138,4.10938 -3.49525,3.1095 -6.505,6.06148 -6.68833,6.55996 -0.45691,1.24234 5.56266,1.1533 6.33333,-0.0937 0.33992,-0.55 1.09323,-1 1.67403,-1 0.62286,0 0.45888,0.92286 -0.3998,2.25 -0.80068,1.2375 -2.40734,5.4 -3.57036,9.25 -1.16301,3.85 -3.20185,8.47157 -4.53075,10.27015 -3.19977,4.33069 -3.38899,12.50707 -0.59669,25.783309 2.61326,12.42498 3.16772,29.94654 0.94765,29.94654 -0.81175,0 -1.89927,-1.35 -2.4167,-3 -0.51743,-1.65 -2.41318,-6.6 -4.2127804,-11 -6.92565,-16.93317 -7.79940002,-23.185239 -3.85012,-27.549149 1.10536,-1.2214 1.68424,-3.88554 1.79859,-8.27744 0.11911,-4.5751 0.68064,-7.04213 1.91277,-8.40362 1.9673804,-2.17399 2.2167704,-3.26979 0.74411,-3.26979 -0.55,0 -1,0.42223 -1,0.93828 0,0.51606 -1.35,2.41634 -3,4.22286 -2.5394,2.78028 -3,4.09481 -3,8.56172 0,3.29286 -0.42996,5.27714 -1.14348,5.27714 -1.29200002,0 -0.37378002,-17.25329 1.054,-19.8046 0.44658,-0.79799 0.3705,-3.19013 -0.16906,-5.31586 -0.77437,-3.05076 -0.65252,-4.36634 0.57841,-6.24498 0.8577,-1.30901 1.3224,-3.2865 1.03267,-4.39443 -0.28973,-1.10793 -0.0376,-2.31676 0.56034,-2.68629 2.00167,-1.2371 1.11524,-2.43229 -1.66288,-2.2421 -2.63998002,0.18073 -2.74181002,0.012 -2.54532002,-4.21642 0.22129,-4.76213 0.99800002,-6.06122 3.91462002,-6.54746 1.03439,-0.17244 1.75627,-0.85205 1.60418,-1.51024 -0.15208,-0.6582 1.53542,-3.36087 3.75,-6.00595 2.2145904,-2.64508 4.0265204,-5.29772 4.0265204,-5.89477 0,-0.59705 1.35,-1.78365 3,-2.6369 2.43707,-1.26026 3,-2.18662 3,-4.93679 0,-6.21308 7.52289,-10.25287 11.08969,-5.95514 1.36522,1.64499 3.19436,1.76601 5.92388,0.39193 1.09254,-0.55 2.89187,-1.45721 3.99851,-2.01602 1.10665,-0.55881 3.01915,-0.79072 4.25,-0.51536 3.36991,0.7539 9.23393,-0.83627 9.26435,-2.51225 0.0145,-0.801 0.40283,-2.0580799 0.86287,-2.7934999 1.30047,-2.07895 -0.79727,-3.55008 -3.2162,-2.25551 -2.90206,1.55313 -3.1731,1.41583 -3.1731,-1.60736 0,-2.1 0.26667,-2.43333 1.2,-1.5 1.64585,1.64585 3.8,1.50924 3.8,-0.24098 0,-0.79254 0.40939,-1.69400001 0.90976,-2.00325001 1.58416,-0.97906 4.09024,0.58407001 4.09024,2.55122001 0,2.02411 3.38569,2.69599 4.5,0.89301 0.33992,-0.55 1.5056,-1 2.5904,-1 1.0848,0 2.23139,-0.675 2.54797,-1.5 0.38497,-1.00322001 1.94772,-1.49493001 4.71862,-1.48469001 2.94855,0.0109 3.71863,0.2837 2.67104,0.94621 -1.27076,0.80364001 -1.24726,1.01712001 0.17185,1.56169001 0.90411,0.34694 2.4665,0.20695 3.47198,-0.31108 1.00548,-0.51803 2.45328,-0.7193 3.21734,-0.44727 0.84893,0.30225 1.11766,0.0553 0.69098,-0.63513 -0.91974,-1.48817001 -0.48862,-1.42963001 3.26618,0.44351 1.7345,0.86528 3.15364,2.02604 3.15364,2.57946 0,0.58011 1.2704,0.76083 3,0.42676 1.65,-0.31871 4.39735,-0.85062 6.10523,-1.18203 l 3.105216,-0.60256 -0.69312,4.10256 c -0.66315,3.9251199 -0.58119,4.1025699 1.89477,4.1025699 1.42335,0 2.5879,0.45 2.5879,1 0,0.55 1.125,1 2.5,1 3.17213,0 3.41473,3.39741 0.46669,6.53546 -1.87102,1.9916 -1.90229,2.2731 -0.39179,3.5267 1.41141,1.17137 1.84267,1.08727 3.07636,-0.59991 1.02946,-1.40787 2.76465,-2.01427 6.14179,-2.14639 8.20674,-0.32106 12.33031,-1.11753 14.10609,-2.72458 2.11804,-1.91681 10.45805,-2.36966 12.49576,-0.6785 0.81751,0.67847 1.62559,2.42444 1.79574,3.87993 0.29129,2.49175 0.64155,2.65626 5.99588,2.81615 5.62578,0.16798 5.75717,0.24186 12.30234,6.91718 4.02134,4.10131 6.84714,7.90397 7.20567,9.69662 0.32442,1.62208 1.31336,3.20396 2.19766,3.51529 4.70113,1.6551 9.57424,10.58886 10.77962,19.76205 0.14454,1.1 0.73867,4.31174 1.32029,7.13719 1.51482,7.35892 -1.45118,23.31324 -5.77182,31.047069 -0.67897,1.21533 -1.22028,5.76217 -1.22028,10.25 0,8.03291 -0.63286,9.41797 -3,6.56574 -2.31528,-2.78974 -5.43897,-1.74974 -8.71829,2.90268 -1.70682,2.42147 -4.38094,5.01316 -5.9425,5.7593 -2.67068,1.2761 -2.87171,1.81398 -3.38665,9.06143 -0.53109,7.47472 -1.02927,9.36655 -2.16691,8.2289 z M 14.752664,65.346771 c 0.93873,-2.44628 0.7352,-2.7695 -0.89301,-1.41821 -1.66238,1.37965 -1.99022,3 -0.60699,3 0.49116,0 1.16616,-0.7118 1.5,-1.58179 z m -6.1494904,-3.91177 c 0.50764,-2.65553 -0.8215,-4.36933 -2.2253,-2.86931 -0.44413,0.47458 -1.12438,2.365 -1.51166,4.20093 -0.65392,3.09992 -0.56316,3.2626 1.27227,2.2803 1.08704,-0.58176 2.19615,-2.20712 2.46469,-3.61192 z M 156.25537,32.014171 c 2.31384,-1.46511 0.47667,-4.08561 -2.86434,-4.08561 -3.17588,0 -3.97444,1.65694 -1.83138,3.8 1.41596,1.41596 2.77958,1.49891 4.69572,0.28561 z M 52.805874,25.208111 c 0.76223,-1.98634 0.0688,-2.69117 -1.90309,-1.93447 -0.84872,0.32568 -1.54313,1.49215 -1.54313,2.59215 0,2.31508 2.48764,1.84034 3.44622,-0.65768 z m 37.51917,-5.2117 c 1.10331,-2.16268 2.46246,-4.21424 3.02032,-4.55902 0.55786,-0.34477 0.98383,-1.38781 0.94661,-2.31785 -0.0514,-1.28354 -0.32914,-1.14885 -1.15281,0.55902 -1.19023,2.4679 -3.77951,3.0656 -3.77951,0.87245 0,-0.75766 0.69407,-1.95359 1.54238,-2.65762 2.81185,-2.3336299 -0.0827,-3.0054399 -4.25781,-0.98823 -3.2677,1.57878 -3.99869,2.4006 -3.57533,4.01955 0.2927,1.11926 0.92786,2.27956 1.41147,2.57845 0.48361,0.29889 0.87929,1.86688 0.87929,3.48442 0,4.25009 2.55131,3.74081 4.96539,-0.99117 z M 31.359654,129.08355 c 0,-0.97977 3.32562,-4.15499 4.35179,-4.15499 0.38188,0 -0.0428,1.125 -0.94375,2.5 -1.60609,2.4512 -3.40804,3.32625 -3.40804,1.65499 z m 12.54327,-0.49969 c -1.75245,-1.28142 -1.73318,-1.37238 0.40949,-1.93269 1.25738,-0.32882 1.95698,-1.05964 1.58717,-1.65801 -0.4456,-0.72098 -1.25964,-0.74979 -2.49561,-0.0883 -1.31092,0.70158 -2.15562,0.59454 -2.96039,-0.37515 -1.34831,-1.62462 1.27048,-2.56607 7.19745,-2.58748 5.13449,-0.0185 6.08255,2.4842 2.13697,5.64128 -3.42206,2.73818 -3.48404,2.74874 -5.87508,1.00037 z m 61.931926,-6.69543 c -0.35606,-0.57612 -0.08,-1.73106 0.61334,-2.56656 1.08714,-1.30991 0.90748,-1.43041 -1.30481,-0.87516 -1.41105,0.35415 -2.84697,0.18854 -3.19095,-0.36802 -1.993826,-3.2261 9.82848,-3.19256 14.82064,0.042 1.959,1.2693 3.56739,2.87033 3.5742,3.55783 0.0175,1.76449 -0.61552,1.56578 -2.93169,-0.92035 -1.83693,-1.9717 -2.18371,-2.02976 -3.78896,-0.6343 -2.34254,2.03638 -6.97535,3.08552 -7.79177,1.76452 z m -55.975196,-1.19474 c -1.1,-0.64574 -3.8,-1.45293 -6,-1.79376 l -4,-0.6197 4.94915,-0.81924 c 5.11698,-0.84703 9.40205,0.49105 10.30401,3.21757 0.51938,1.57004 -2.58912,1.57899 -5.25316,0.0151 z m 46,-6.76513 c 0.33992,-0.55 1.37898,-0.99311 2.30902,-0.98469 1.45727,0.0132 1.48367,0.14929 0.19098,0.98469 -1.95837,1.2656 -3.28218,1.2656 -2.5,0 z m -65.11724,-2.32957 c 3.28364,-2.79899 8.5362,-3.90176 13.54247,-2.84325 6.12776,1.29564 4.67489,2.91248 -3.12911,3.48225 -4.01286,0.29298 -8.64612,0.82194 -10.29612,1.17548 l -3,0.64278 z m 57.61724,-6.02171 c 0,-1.70297 4.30608,-2.64872 12.059896,-2.64872 5.73113,0 11.77222,1.50121 10.63151,2.64193 -0.32229,0.32228 -5.5597,0.77037 -11.638686,0.99574 -8.99759,0.33358 -11.05272,0.1497 -11.05272,-0.98895 z"/>
</svg>
